<?xml version="1.0" encoding="utf-8"?>
<!-- Generator: Adobe Illustrator 24.0.1, SVG Export Plug-In . SVG Version: 6.00 Build 0)  -->
<svg version="1.1" xmlns="http://www.w3.org/2000/svg" xmlns:xlink="http://www.w3.org/1999/xlink" x="0px" y="0px"
	 viewBox="0 0 612 792" style="enable-background:new 0 0 612 792;" xml:space="preserve">
<style type="text/css">
	.st0{fill:#FDFEFE;stroke:#000000;stroke-miterlimit:10;}
	.st1{fill:#FDFEFE;}
	.st2{stroke:#000000;stroke-miterlimit:10;}
</style>
<g id="Layer_1">
	<path class="st0" d="M303.74,346.24c39.34,2.59,78.98-15.12,102.75-50.08c2.7-3.96,5.1-8.03,7.24-12.18
		c-4.74-2.12-9.69-3.94-14.82-5.43c-37.04-10.78-75.12-2.09-103.28,20.06"/>
	<path class="st0" d="M268.11,372.65c9.32,37.13,36.95,68.78,76.04,81.48c4.56,1.48,9.14,2.66,13.73,3.55
		c0.71-5.15,1.07-10.41,1.07-15.75c0-41.66-22.15-78.14-55.32-98.31"/>
	<path class="st0" d="M233.69,344.63c-33.93,19.99-56.7,56.91-56.7,99.14c0,4.79,0.29,9.51,0.86,14.15
		c5.12-0.92,10.24-2.2,15.32-3.85c38.98-12.67,66.55-44.19,75.94-81.18"/>
	<path class="st0" d="M247.03,300.9c-29.28-23.9-69.73-32.89-108.35-20.34c-4.55,1.48-8.95,3.21-13.18,5.19
		c2.45,4.58,5.25,9.05,8.39,13.38c23.7,32.62,61.33,49.11,98.8,47.27"/>
	<path class="st0" d="M296,299.77c11.67-34.21,7.08-73.37-15.77-104.83c-2.82-3.88-5.83-7.53-9.02-10.95
		c-3.59,3.75-6.98,7.8-10.12,12.12c-23.3,32.07-27.6,72.13-15.06,106.79"/>
	<polygon class="st1" points="246.08,298.81 230.22,346.2 270.39,375.05 311.07,345.49 296.05,298.37 	"/>
	<circle class="st0" cx="271.67" cy="332.13" r="28"/>
</g>
<g id="Layer_2">
	<ellipse class="st0" cx="254.96" cy="240.13" rx="9.88" ry="16.22"/>
	<ellipse class="st0" cx="286.37" cy="240.13" rx="9.88" ry="16.22"/>
	<path class="st2" d="M254.96,240.13c-0.35,0-0.7,0.08-1.02,0.21c0.69,0.38,1.17,1.23,1.17,2.22c0,1.35-0.88,2.44-1.97,2.44
		c-0.82,0-1.52-0.62-1.82-1.5c-0.42,1.12-0.67,2.43-0.67,3.85c0,3.99,1.93,7.22,4.31,7.22c2.38,0,4.31-3.23,4.31-7.22
		C259.28,243.37,257.35,240.13,254.96,240.13z"/>
	<path class="st2" d="M286.37,240.13c-0.35,0-0.7,0.08-1.02,0.21c0.69,0.38,1.17,1.23,1.17,2.22c0,1.35-0.88,2.44-1.97,2.44
		c-0.82,0-1.52-0.62-1.82-1.5c-0.42,1.12-0.67,2.43-0.67,3.85c0,3.99,1.93,7.22,4.31,7.22s4.31-3.23,4.31-7.22
		C290.69,243.37,288.75,240.13,286.37,240.13z"/>
	<rect x="250.98" y="272.9" width="39.57" height="4"/>
	<g>
	</g>
	<g>
	</g>
	<g>
	</g>
	<g>
	</g>
	<g>
	</g>
	<g>
	</g>
</g>
</svg>
